<svg width="241" height="371" viewBox="0 0 241 371" fill="none" xmlns="http://www.w3.org/2000/svg">
<g id="cosmonaut">
<g id="Group">
<path id="Vector" d="M204.547 300.761C204.114 300.761 203.749 300.427 203.718 299.988C202.85 287.934 199.464 279.345 199.43 279.259C199.394 279.177 195.098 269.116 189.958 257.849C184.836 246.627 172.465 227.273 172.341 227.078C172.093 226.691 172.206 226.176 172.593 225.928C172.979 225.679 173.494 225.793 173.743 226.18C173.868 226.375 186.303 245.828 191.473 257.157C196.623 268.443 200.927 278.522 200.97 278.622C201.12 278.997 204.492 287.539 205.38 299.867C205.413 300.326 205.068 300.724 204.609 300.757C204.588 300.761 204.567 300.761 204.547 300.761Z" fill="#142664"/>
</g>
<g id="Group_2">
<path id="Vector_2" d="M193.749 251.306C193.484 251.306 193.223 251.18 193.062 250.944C192.957 250.792 182.491 235.594 172.174 224.879C171.855 224.548 171.865 224.021 172.196 223.702C172.527 223.384 173.055 223.393 173.373 223.724C183.788 234.539 194.33 249.848 194.435 250.002C194.695 250.381 194.599 250.899 194.22 251.159C194.076 251.259 193.912 251.306 193.749 251.306Z" fill="#142664"/>
</g>
<g id="Group_3">
<path id="Vector_3" fill-rule="evenodd" clip-rule="evenodd" d="M201.294 280.246L200.546 280.577C198.908 281.302 196.993 280.561 196.269 278.924L190.722 266.385C189.997 264.747 190.738 262.832 192.375 262.108L193.123 261.777C194.761 261.052 196.676 261.793 197.4 263.43L202.947 275.969C203.672 277.607 202.932 279.522 201.294 280.246Z" fill="#00E6B3"/>
<path id="Vector_4" d="M198.534 282.127C197.499 282.127 196.511 281.529 196.066 280.523L189.402 265.458C189.111 264.8 189.094 264.068 189.353 263.397C189.613 262.725 190.118 262.195 190.776 261.904L194.05 260.456C194.709 260.166 195.44 260.147 196.111 260.407C196.783 260.667 197.313 261.172 197.604 261.83L204.268 276.895C204.559 277.552 204.577 278.285 204.317 278.956C204.057 279.628 203.552 280.158 202.894 280.449H202.893L199.619 281.897C199.267 282.053 198.898 282.127 198.534 282.127ZM195.14 261.891C194.999 261.891 194.857 261.921 194.724 261.98L191.45 263.428C191.199 263.539 191.006 263.741 190.906 263.998C190.807 264.255 190.814 264.535 190.925 264.786L197.589 279.85C197.818 280.368 198.426 280.604 198.947 280.375L202.221 278.927C202.472 278.816 202.666 278.613 202.765 278.357C202.864 278.101 202.858 277.821 202.747 277.57L196.082 262.505C195.971 262.254 195.769 262.061 195.512 261.962C195.391 261.914 195.265 261.891 195.14 261.891ZM202.557 279.688H202.562H202.557Z" fill="#142664"/>
</g>
<g id="Group_4">
<path id="Vector_5" d="M193.749 252.734C194.997 252.734 196.009 251.722 196.009 250.474C196.009 249.226 194.997 248.214 193.749 248.214C192.501 248.214 191.489 249.226 191.489 250.474C191.489 251.722 192.501 252.734 193.749 252.734Z" fill="#142664"/>
</g>
<g id="Group_5">
<path id="Vector_6" d="M204.548 302.695C205.796 302.695 206.808 301.683 206.808 300.435C206.808 299.187 205.796 298.175 204.548 298.175C203.3 298.175 202.288 299.187 202.288 300.435C202.288 301.683 203.3 302.695 204.548 302.695Z" fill="#142664"/>
</g>
<g id="right-hand">
<path id="Vector_7" d="M215.535 72.388C215.243 72.57 214.868 72.585 214.575 72.403C209.591 69.304 208.234 61.799 207.977 57.737C207.724 53.739 207.272 45.983 210.292 44.818C212.503 43.965 214.249 46.863 215.126 50.737C215.333 51.652 216.597 51.742 216.903 50.856C219.196 44.205 223.5 29.597 229.867 29.886C234.396 30.092 239.783 39.955 240.641 45.427C241.523 51.051 231.678 66.879 225.041 70.886C224.94 70.947 215.535 72.388 215.535 72.388Z" fill="#142664"/>
</g>
<g id="left-hand">
<path id="Vector_8" d="M24.247 204.882C24.569 204.76 24.94 204.817 25.192 205.052C29.487 209.051 29.375 216.678 28.847 220.713C28.327 224.685 27.952 232.228 24.091 232.945C21.761 233.378 20.601 230.177 20.486 226.207C20.459 225.27 19.424 225.081 18.765 225.749C14.043 230.539 17.719 238.55 13.897 241.539C9.526 244.958 -0.655998 229.061 0.0350023 223.032C0.734002 216.935 5.579 211.815 7.364 209.922C10.218 206.896 14.296 205.039 18.223 204.256L24.247 204.882Z" fill="#142664"/>
</g>
<g id="Group_6">
<path id="Vector_9" d="M99.72 306.83C99.72 306.83 89.226 317.023 85.696 326.166C83.068 332.962 85.785 339.834 88.595 344.372C89.442 345.687 90.848 346.506 92.485 346.593C94.057 346.633 95.568 345.928 96.471 344.683C101.035 338.391 108.641 327.904 112.729 322.267C114.25 320.17 113.83 317.164 111.667 315.595C106.995 312.106 99.72 306.83 99.72 306.83Z" fill="#142664"/>
</g>
<g id="Group_7">
<path id="Vector_10" d="M116.677 334.882C116.677 334.882 129.988 340.951 136.388 348.373C141.149 353.888 140.902 361.274 139.783 366.493C139.428 368.016 138.379 369.261 136.867 369.894C135.4 370.46 133.74 370.305 132.471 369.436C126.056 365.046 115.366 357.729 109.619 353.796C107.481 352.333 106.866 349.361 108.375 347.156C111.601 342.298 116.677 334.882 116.677 334.882Z" fill="#142664"/>
</g>
<g id="Group_8">
<path id="Vector_11" d="M178.493 299.757C172.549 322.889 153.302 343.33 145.038 349.507C142.846 351.144 138.012 351.644 136.608 350.534L117 335.51C115.507 334.328 115.851 328.356 118.005 325.065C122.528 318.155 136.431 307.316 140.061 286.626C142.142 274.727 139.439 263.2 136.864 254.114C136.353 252.316 134.749 251.05 132.879 250.967L120.37 249.341L116.18 248.797C114.737 248.73 113.294 248.986 111.973 249.552C111.746 249.646 111.518 249.746 111.301 249.863C101.833 254.78 86.587 264.67 86.199 276.642C85.761 290.062 96.006 297.11 99.908 302.577C101.473 304.769 102.189 308.138 101.04 309.598L85.339 328.152C84.273 329.512 78.052 329.418 73.545 326.859C64.687 321.831 45.024 294.752 46.811 268.34C48.21 247.644 64.465 235.246 76.398 227.293C105.996 207.557 125.754 212.142 125.754 212.142L164.987 213.962C167.59 221.16 170.348 217.297 173.379 226.111C179.431 243.736 184.687 275.643 178.493 299.757Z" fill="#142664"/>
</g>
<g id="Group_9">
<path id="Vector_12" d="M124.253 247.072C124.253 247.072 122.593 247.943 120.368 249.342L116.178 248.798C114.735 248.731 113.292 248.987 111.971 249.553C112.165 249.414 112.36 249.276 112.554 249.142C113.486 248.515 114.519 247.871 115.534 247.383C119.402 245.246 122.877 244.042 122.877 244.042C123.598 243.703 124.414 244.236 124.758 245.024C125.136 245.912 124.83 246.789 124.253 247.072Z" fill="#00E6B3"/>
</g>
<g id="Group_10">
<g id="Group_11">
<g id="Group_12">
<path id="Vector_13" d="M100.604 248.544C99.765 248.995 98.932 249.46 98.115 249.95C97.433 250.35 96.556 250.147 96.121 249.459C95.691 248.778 95.905 247.867 96.625 247.445C97.48 246.932 98.351 246.446 99.229 245.974C99.964 245.578 100.853 245.861 101.213 246.583C101.576 247.31 101.3 248.169 100.604 248.544Z" fill="#00E6B3"/>
</g>
</g>
<g id="Group_13">
<g id="Group_14">
<path id="Vector_14" d="M93.35 253.094C92.585 253.657 91.831 254.235 91.1 254.837C90.49 255.333 89.591 255.258 89.059 254.652C88.523 254.041 88.602 253.111 89.254 252.582C90.028 251.945 90.823 251.335 91.628 250.743C92.303 250.249 93.222 250.404 93.679 251.069C94.14 251.737 93.986 252.628 93.35 253.094Z" fill="#00E6B3"/>
</g>
</g>
<g id="Group_15">
<g id="Group_16">
<path id="Vector_15" d="M86.949 258.683C86.302 259.365 85.685 260.072 85.096 260.798C84.613 261.401 83.715 261.51 83.067 261.038C82.406 260.556 82.296 259.631 82.829 258.966C83.468 258.177 84.135 257.414 84.83 256.682C85.405 256.06 86.352 256.063 86.912 256.638C87.483 257.221 87.476 258.111 86.949 258.683Z" fill="#00E6B3"/>
</g>
</g>
<g id="Group_17">
<g id="Group_18">
<path id="Vector_16" d="M81.996 265.422L81.375 266.657L80.828 267.922C80.568 268.631 79.749 269.003 78.976 268.757C78.206 268.512 77.818 267.658 78.12 266.842L78.734 265.422L79.426 264.044C79.845 263.29 80.749 263.038 81.436 263.462C82.128 263.89 82.368 264.756 81.996 265.422Z" fill="#00E6B3"/>
</g>
</g>
<g id="Group_19">
<g id="Group_20">
<path id="Vector_17" d="M79.414 273.256C79.245 274.169 79.217 275.101 79.108 276.022C79.057 276.406 78.895 276.746 78.639 276.994C78.377 277.241 78.013 277.396 77.608 277.391C77.203 277.385 76.838 277.216 76.575 276.935C76.306 276.655 76.146 276.263 76.199 275.84C76.313 274.826 76.352 273.799 76.535 272.795C76.7 271.953 77.467 271.418 78.259 271.591C79.05 271.764 79.565 272.504 79.414 273.256Z" fill="#00E6B3"/>
</g>
</g>
<g id="Group_21">
<g id="Group_22">
<path id="Vector_18" d="M79.293 281.582C79.38 282.508 79.62 283.414 79.773 284.332C79.909 285.09 79.506 285.845 78.709 286.065C77.945 286.276 77.082 285.806 76.927 284.965C76.755 283.961 76.5 282.971 76.401 281.955C76.316 281.102 76.896 280.372 77.704 280.314C78.512 280.256 79.219 280.818 79.293 281.582Z" fill="#00E6B3"/>
</g>
</g>
<g id="Group_23">
<g id="Group_24">
<path id="Vector_19" d="M81.444 289.675C81.797 290.542 82.218 291.384 82.599 292.24C82.95 292.933 82.7 293.784 81.985 294.178C81.281 294.566 80.372 294.294 79.989 293.539C79.574 292.616 79.124 291.709 78.743 290.772C78.446 289.975 78.821 289.121 79.585 288.852C80.349 288.584 81.176 288.949 81.444 289.675Z" fill="#00E6B3"/>
</g>
</g>
<g id="Group_25">
<g id="Group_26">
<path id="Vector_20" d="M85.46 297.107C86.02 297.867 86.564 298.639 87.136 299.39C87.634 299.994 87.537 300.896 86.917 301.417C86.297 301.938 85.373 301.835 84.839 301.185C84.23 300.385 83.649 299.563 83.054 298.753C82.596 298.044 82.784 297.128 83.469 296.698C84.156 296.266 85.038 296.45 85.46 297.107Z" fill="#00E6B3"/>
</g>
</g>
<g id="Group_27">
<g id="Group_28">
<path id="Vector_21" d="M90.898 303.634C91.587 304.282 92.231 304.979 92.962 305.582C93.553 306.097 93.612 307.008 93.094 307.631C92.577 308.254 91.656 308.31 91.022 307.758C90.248 307.116 89.563 306.38 88.833 305.691C88.22 305.115 88.269 304.15 88.853 303.608C89.455 303.048 90.324 303.098 90.898 303.634Z" fill="#00E6B3"/>
</g>
</g>
</g>
<g id="Group_29">
<path id="Vector_22" d="M11.081 194.999C18.029 174.453 32.107 158.124 50.282 145.938C57.949 140.798 73.608 131.444 83.726 129.63C83.726 129.63 135.877 115.605 151.903 117.747C166.113 119.646 181.993 104.947 189.579 93.35C195.629 84.102 199.222 77.402 201.459 72.532C206.438 61.696 210.199 61.591 214.735 63.244C217.489 64.248 220.962 65.278 223.75 66.63C229.944 69.635 231.514 72.345 231.538 78.332C231.565 85.123 227.587 103.743 211.872 124.952C204.475 134.935 190.977 147.852 177.682 156.718C175.945 157.877 174.985 159.891 175.22 161.966C176.347 171.923 177.839 188.719 178.341 204.244C178.807 218.64 173.322 228.533 169.706 229.358C166.484 229.458 123.388 237.943 85.754 227.29C83.544 226.664 79.3 221.951 78.743 207.377C78.385 198.019 79.406 184.875 79.927 176.984C80.02 175.572 78.782 174.423 77.385 174.642C70.906 175.66 65.382 178.736 58.067 184.577C43.937 195.86 43.154 203.355 36.207 210.355C34.262 212.315 28.123 214.786 23.041 212.909C18.624 211.278 18.434 211.183 14.928 209.184C8.77001 205.674 9.68301 199.131 11.081 194.999Z" fill="#142664"/>
</g>
<g id="Group_30">
<g id="Group_31">
<path id="Vector_23" d="M74.137 167.002C74.137 167.002 74.664 167.879 75.378 169.067C75.777 169.675 76.196 170.402 76.646 171.101C76.907 171.492 77.184 171.913 77.482 172.276C78.017 173.022 78.489 173.708 78.82 174.21C79.142 174.715 79.342 175.029 79.342 175.029C79.465 175.318 79.95 175.343 80.369 175.169C80.838 174.968 81.041 174.558 80.923 174.269C80.923 174.269 80.776 173.891 80.517 173.304C80.254 172.721 79.872 171.936 79.422 171.108C79.206 170.665 78.943 170.255 78.649 169.822C78.183 169.099 77.663 168.419 77.208 167.831C76.35 166.71 75.594 165.928 75.594 165.928C75.402 165.647 74.909 165.71 74.549 165.986C74.106 166.338 73.937 166.796 74.137 167.002Z" fill="#00E6B3"/>
</g>
</g>
<g id="Group_32">
<g id="Group_33">
<path id="Vector_24" d="M105.468 139.469C143.365 139.469 174.086 108.748 174.086 70.851C174.086 32.9543 143.365 2.233 105.468 2.233C67.5713 2.233 36.85 32.9543 36.85 70.851C36.85 108.748 67.5713 139.469 105.468 139.469Z" fill="white"/>
</g>
<g id="Group_34">
<path id="Vector_25" d="M95.567 138.75C89.626 137.884 83.977 136.282 78.697 134.043C58.129 119.641 46.25 94.439 50.12 67.9C55.589 30.403 90.422 4.43101 127.919 9.90001C133.86 10.766 139.519 12.365 144.799 14.604C165.367 29.006 177.236 54.211 173.366 80.75C167.903 118.25 133.07 144.222 95.567 138.75Z" fill="#00E6B3"/>
</g>
<g id="Group_35">
<path id="Vector_26" d="M105.394 141.693C101.871 141.693 98.36 141.431 94.896 140.907C63.068 136.134 38.447 110.413 35.026 78.359C33.022 59.544 38.464 41.075 50.35 26.353C62.238 11.629 79.145 2.41701 97.958 0.412006C109.067 -0.775994 119.977 0.606006 130.38 4.52001C155.606 14.013 173.05 36.553 175.904 63.343C177.912 82.158 172.472 100.628 160.586 115.351C148.699 130.074 131.79 139.286 112.974 141.289C110.449 141.559 107.918 141.693 105.394 141.693ZM105.629 4.44101C103.242 4.44101 100.841 4.56901 98.429 4.82701C80.795 6.70601 64.947 15.341 53.806 29.141C42.664 42.942 37.563 60.253 39.442 77.888C42.649 107.933 65.724 132.042 95.558 136.517C101.13 137.36 106.83 137.48 112.504 136.875C130.141 134.998 145.99 126.363 157.132 112.562C168.273 98.762 173.372 81.449 171.49 63.814C168.814 38.702 152.463 17.574 128.817 8.67601C121.326 5.85801 113.552 4.44101 105.629 4.44101Z" fill="#142664"/>
</g>
<g id="Group_36">
<g id="Group_37">
<path id="Vector_27" d="M156.239 116.153C156.239 116.153 154.463 116.118 152.057 116.071C150.79 116.093 149.322 116.09 147.858 116.177C147.031 116.234 146.14 116.31 145.323 116.449C143.71 116.664 142.244 116.926 141.188 117.169C140.131 117.407 139.48 117.59 139.48 117.59C138.906 117.71 138.609 118.217 138.704 118.661C138.817 119.158 139.355 119.402 139.835 119.309C139.835 119.309 140.473 119.201 141.499 119.068C142.524 118.93 143.945 118.804 145.495 118.708C146.306 118.682 147.108 118.616 147.976 118.552C149.409 118.457 150.838 118.363 152.081 118.281C154.453 118.145 156.271 117.965 156.271 117.965C156.843 117.961 157.231 117.523 157.236 117.069C157.226 116.501 156.735 116.1 156.239 116.153Z" fill="#142664"/>
</g>
</g>
<g id="Group_38">
<g id="Group_39">
<path id="Vector_28" d="M75.784 132.827C75.784 132.827 77.065 132.364 78.846 131.869C79.769 131.574 80.857 131.309 81.932 131.028C82.537 130.861 83.191 130.691 83.786 130.5C84.97 130.173 86.058 129.926 86.848 129.776C87.638 129.63 88.126 129.572 88.126 129.572C88.543 129.566 88.835 129.138 88.857 128.682C88.875 128.174 88.475 127.818 88.049 127.819C88.049 127.819 87.495 127.809 86.629 127.865C85.765 127.924 84.59 128.056 83.334 128.281C82.673 128.372 82.032 128.532 81.348 128.724C80.218 129.02 79.12 129.404 78.175 129.765C76.373 130.44 75.086 131.157 75.086 131.157C74.659 131.33 74.539 131.848 74.714 132.266C74.943 132.784 75.451 133.015 75.784 132.827Z" fill="#142664"/>
</g>
</g>
<g id="Group_40">
<g id="Group_41">
<path id="Vector_29" d="M138.189 120.732C138.189 120.732 138.514 122.44 138.978 124.75C139.256 125.954 139.538 127.352 139.874 128.731C140.07 129.508 140.286 130.344 140.536 131.103C141.41 134.117 142.164 136.587 142.164 136.587C142.284 137.131 142.791 137.41 143.237 137.321C143.736 137.214 143.974 136.676 143.874 136.191C143.874 136.191 143.386 133.629 142.745 130.6C142.602 129.804 142.405 129.027 142.189 128.191C141.853 126.812 141.465 125.451 141.133 124.265C140.509 122.01 139.952 120.317 139.952 120.317C139.832 119.773 139.325 119.493 138.879 119.582C138.327 119.709 138.035 120.265 138.189 120.732Z" fill="#142664"/>
</g>
</g>
<g id="Group_42">
<g id="Group_43">
<path id="Vector_30" d="M89.886 129.847C89.886 129.847 91.251 130.091 93.465 130.13C95.682 130.18 98.763 130.063 102.282 129.746C105.973 129.382 110.209 128.846 114.398 128.108C116.762 127.687 119.299 127.179 121.618 126.606C126.195 125.539 130.321 124.338 133.265 123.23C134.737 122.676 135.915 122.148 136.719 121.727C137.522 121.302 137.956 121.006 137.956 121.006C138.714 120.533 139.317 119.879 139.502 119.186C139.533 118.998 139.56 118.844 139.54 118.694C139.514 118.541 139.487 118.421 139.429 118.33C139.302 118.145 139.177 118.087 139.067 118.105C138.945 118.13 138.836 118.238 138.746 118.332C138.649 118.431 138.529 118.514 138.405 118.614C138.123 118.82 137.635 119.14 137.067 119.491C137.067 119.491 136.704 119.729 135.963 120.091C135.221 120.451 134.093 120.915 132.661 121.403C129.796 122.383 125.719 123.44 121.243 124.371C118.904 124.834 116.579 125.3 114.067 125.755C109.932 126.485 105.793 127.123 102.183 127.538C98.753 127.935 95.728 128.152 93.583 128.186C92.51 128.205 91.66 128.177 91.082 128.143C90.505 128.106 90.2 128.065 90.2 128.065C89.434 127.95 88.81 127.893 88.397 127.86C88.305 127.848 88.199 127.847 88.117 127.843C88.043 127.837 87.96 127.837 87.883 127.837C87.759 127.833 87.611 127.829 87.503 127.869C87.374 127.927 87.301 128.06 87.338 128.306C87.36 128.422 87.416 128.534 87.498 128.672C87.581 128.799 87.687 128.907 87.819 129.034C88.337 129.479 89.115 129.754 89.886 129.847Z" fill="#142664"/>
</g>
</g>
</g>
<g id="Group_44">
<path id="Vector_31" d="M115.596 172.84C120.449 172.84 124.383 168.906 124.383 164.053C124.383 159.2 120.449 155.266 115.596 155.266C110.743 155.266 106.809 159.2 106.809 164.053C106.809 168.906 110.743 172.84 115.596 172.84Z" fill="white"/>
</g>
<g id="Group_45">
<path id="Vector_32" d="M115.596 169.139C118.405 169.139 120.682 166.862 120.682 164.053C120.682 161.244 118.405 158.967 115.596 158.967C112.787 158.967 110.51 161.244 110.51 164.053C110.51 166.862 112.787 169.139 115.596 169.139Z" fill="#FF2E93"/>
</g>
<g id="Group_46">
<g id="Group_47">
<g id="Group_48">
<path id="Vector_33" d="M175.61 154.75C175.61 154.75 175.272 153.032 174.441 150.243C174.027 148.848 173.48 147.19 172.8 145.341C172.454 144.419 172.085 143.446 171.665 142.437C171.455 141.932 171.235 141.417 170.997 140.89L170.808 140.488C170.773 140.417 170.75 140.361 170.706 140.278L170.564 140.024C170.359 139.694 170.117 139.376 169.818 139.112C168.592 137.967 166.561 137.668 164.987 138.604C163.865 139.258 162.712 139.929 161.54 140.611C159.199 141.982 156.781 143.398 154.366 144.812C151.648 146.425 148.725 148.165 146.054 149.815C135.492 156.233 126.804 161.511 126.804 161.511C124.909 162.616 123.793 163.771 123.956 164.201C124.165 164.67 125.926 164.047 127.616 163.069C127.616 163.069 136.509 157.938 147.075 151.842C149.838 150.267 152.556 148.655 155.479 146.915C157.882 145.483 160.282 144.054 162.601 142.672C163.758 141.977 164.895 141.293 166.003 140.627L166.21 140.502L166.262 140.47L166.303 140.453C166.394 140.407 166.491 140.38 166.586 140.347C166.78 140.297 166.979 140.276 167.177 140.284C167.572 140.302 167.959 140.446 168.259 140.684C168.4 140.798 168.532 140.924 168.632 141.074C168.691 141.143 168.726 141.228 168.777 141.303L168.954 141.659C169.188 142.138 169.41 142.629 169.625 143.11C170.05 144.077 170.44 145.016 170.798 145.913C171.513 147.706 172.093 149.326 172.541 150.686C172.991 152.046 173.313 153.146 173.521 153.905C173.722 154.665 173.831 155.081 173.831 155.081C174.303 157.171 174.862 158.607 175.334 158.647C175.618 158.636 175.802 158.157 175.874 157.418C175.93 156.684 175.847 155.708 175.61 154.75Z" fill="#00E6B3"/>
</g>
</g>
<g id="Group_49">
<g id="Group_50">
<path id="Vector_34" d="M81.103 174.718C81.103 174.718 81.252 174.629 81.525 174.465C81.802 174.305 82.186 174.052 82.707 173.778C83.728 173.208 85.192 172.445 86.921 171.647C88.722 170.781 90.847 169.878 92.981 169.036C94.188 168.568 95.486 168.065 96.687 167.6C99.064 166.735 101.274 166.115 102.884 165.779C103.689 165.635 104.345 165.499 104.792 165.476C105.242 165.43 105.492 165.404 105.492 165.404C105.923 165.381 106.27 165.331 106.549 165.17C106.823 165.02 107.015 164.809 107.058 164.584C107.159 164.09 106.365 163.658 105.481 163.647C105.481 163.647 105.199 163.657 104.692 163.676C104.177 163.674 103.466 163.77 102.586 163.878C100.841 164.134 98.498 164.659 96.031 165.43C95.388 165.628 94.745 165.827 94.103 166.059C93.466 166.303 92.819 166.551 92.148 166.808C89.949 167.678 87.827 168.699 86.006 169.635C84.277 170.53 82.796 171.402 81.761 172.077C81.237 172.399 80.834 172.699 80.553 172.892C80.274 173.09 80.12 173.197 80.12 173.197C79.329 173.724 79.051 174.471 79.306 174.84C79.649 175.295 80.492 175.185 81.103 174.718Z" fill="#00E6B3"/>
</g>
</g>
<g id="Group_51">
<path id="Vector_35" d="M115.602 173.673C111.547 173.673 107.767 171.087 106.447 167.027C104.807 161.983 107.577 156.545 112.621 154.905C117.665 153.264 123.104 156.035 124.743 161.079C125.537 163.522 125.332 166.129 124.166 168.418C123 170.708 121.012 172.406 118.568 173.201C117.585 173.521 116.585 173.673 115.602 173.673ZM115.59 156.099C114.776 156.099 113.95 156.224 113.136 156.489C111.115 157.146 109.472 158.55 108.507 160.443C107.542 162.336 107.373 164.491 108.03 166.512C108.687 168.533 110.091 170.176 111.984 171.141C113.878 172.106 116.033 172.276 118.053 171.618C120.074 170.961 121.717 169.557 122.682 167.664C123.647 165.771 123.816 163.615 123.159 161.595C122.069 158.237 118.943 156.099 115.59 156.099Z" fill="#00E6B3"/>
</g>
<g id="Group_52">
<g id="Group_53">
<path id="Vector_36" d="M123.13 156.414C123.13 156.414 125.884 153.946 129.617 150.599C131.554 148.818 133.786 146.764 136.011 144.717C137.253 143.546 138.587 142.282 139.782 141.078C140.379 140.495 140.964 139.925 141.529 139.375L141.743 139.165L141.993 138.904C142.152 138.724 142.299 138.538 142.432 138.345C142.697 137.958 142.906 137.545 143.059 137.126C143.367 136.285 143.44 135.419 143.348 134.636C143.328 134.44 143.288 134.248 143.251 134.064C143.216 133.912 143.181 133.762 143.147 133.616C143.079 133.323 143.013 133.041 142.951 132.773C142.449 130.623 142.137 129.286 142.137 129.286C141.909 128.123 141.322 127.391 140.869 127.442C140.363 127.515 140.213 128.557 140.409 129.594C140.409 129.594 140.66 130.958 141.061 133.132C141.112 133.404 141.165 133.688 141.22 133.984C141.248 134.132 141.276 134.283 141.304 134.436C141.325 134.573 141.346 134.681 141.353 134.809C141.395 135.303 141.328 135.84 141.12 136.35C141.018 136.605 140.882 136.852 140.714 137.082C140.63 137.197 140.538 137.307 140.438 137.412C140.338 137.517 140.241 137.605 140.081 137.75C139.502 138.276 138.904 138.818 138.294 139.372C137.006 140.51 135.764 141.681 134.43 142.945C132.222 145.009 130.061 147.107 128.175 148.927C124.588 152.381 121.921 155.069 121.921 155.069C121.047 155.87 120.728 156.752 121.007 157.113C121.379 157.536 122.394 157.155 123.13 156.414Z" fill="#00E6B3"/>
</g>
</g>
</g>
<g id="Group_54">
<g id="Group_55">
<path id="Vector_37" d="M46.198 154.149C46.198 154.149 46.305 154.973 46.375 156.342C46.404 157.023 46.423 157.847 46.349 158.724C46.31 159.157 46.244 159.613 46.12 159.99C46.063 160.183 45.981 160.335 45.918 160.433C45.868 160.496 45.87 160.473 45.842 160.482L45.835 160.483C45.784 160.498 45.508 160.456 45.165 160.149C44.821 159.854 44.455 159.412 44.081 158.923C43.698 158.43 43.321 157.888 42.792 157.315C42.655 157.171 42.509 157.026 42.336 156.88C42.192 156.757 41.878 156.522 41.586 156.401C40.995 156.122 40.299 156.122 39.718 156.4C39.607 156.475 39.464 156.537 39.349 156.64C39.037 156.855 38.807 157.183 38.633 157.532C38.446 157.933 38.407 158.163 38.349 158.432C38.253 158.949 38.239 159.409 38.239 159.853C38.246 160.735 38.328 161.548 38.395 162.306C38.473 163.323 38.489 164.286 38.373 164.761C38.325 164.996 38.254 165.11 38.261 165.122C38.251 165.149 38.246 165.166 38.261 165.168C38.226 165.186 38.244 165.199 38.165 165.22C38.096 165.249 37.987 165.275 37.879 165.296C37.66 165.341 37.403 165.359 37.161 165.372C36.666 165.393 36.184 165.377 35.743 165.351C34.858 165.297 34.127 165.208 33.553 165.136C32.404 164.985 31.879 164.894 31.879 164.894C30.834 164.686 30.012 164.937 29.872 165.37C29.729 165.862 30.552 166.414 31.512 166.61C31.512 166.61 32.06 166.736 33.262 166.946C33.864 167.048 34.628 167.171 35.593 167.264C36.077 167.308 36.609 167.347 37.218 167.341C37.527 167.333 37.846 167.324 38.218 167.263C38.405 167.232 38.597 167.196 38.824 167.119C39.045 167.047 39.346 166.896 39.571 166.717C39.499 166.786 39.623 166.702 39.865 166.453C40.104 166.175 40.316 165.774 40.446 165.31C40.707 164.385 40.691 163.313 40.661 162.269C40.648 161.467 40.601 160.693 40.605 159.964C40.607 159.603 40.623 159.25 40.67 158.957C40.681 158.882 40.698 158.822 40.71 158.755C40.726 158.711 40.749 158.618 40.742 158.643L40.741 158.639L40.742 158.638L40.748 158.636C40.682 158.583 40.915 158.751 41.091 158.942C41.466 159.33 41.856 159.847 42.271 160.357C42.691 160.871 43.135 161.405 43.737 161.895C44.039 162.137 44.398 162.372 44.841 162.531C45.064 162.609 45.304 162.664 45.554 162.687C45.679 162.696 45.805 162.694 45.93 162.691C46.063 162.683 46.206 162.66 46.34 162.636C46.349 162.633 46.357 162.631 46.364 162.629C46.895 162.505 47.359 162.162 47.651 161.746C47.919 161.37 48.052 161.016 48.146 160.695C48.333 160.047 48.384 159.481 48.414 158.954C48.463 157.903 48.393 157.014 48.323 156.274C48.171 154.8 47.999 153.936 47.999 153.936C47.862 152.835 47.293 152.14 46.84 152.19C46.281 152.286 46.036 153.233 46.198 154.149Z" fill="#00E6B3"/>
</g>
</g>
<g id="Group_56">
<g id="Group_57">
<path id="Vector_38" d="M189.342 105.834C189.342 105.834 189.191 105.794 188.944 105.68C188.82 105.631 188.673 105.567 188.512 105.475C188.348 105.396 188.171 105.292 187.985 105.171C187.578 104.957 187.145 104.628 186.725 104.295C186.48 104.118 186.223 103.914 185.969 103.747C185.497 103.384 185.115 103.003 184.897 102.733C184.847 102.667 184.801 102.607 184.761 102.554C184.732 102.508 184.707 102.469 184.687 102.437C184.636 102.365 184.637 102.357 184.637 102.357C184.639 102.34 184.611 102.33 184.56 102.317C184.507 102.3 184.457 102.328 184.373 102.309C184.211 102.288 183.998 102.187 183.784 102.111C183.544 102.026 183.321 102.021 183.145 102.161C183.062 102.221 182.98 102.346 182.95 102.427C182.917 102.513 182.905 102.61 182.918 102.705C182.918 102.705 182.927 102.85 182.98 103.013C183.005 103.1 183.035 103.212 183.077 103.332C183.123 103.438 183.175 103.559 183.232 103.693C183.475 104.203 183.872 104.799 184.383 105.363C184.63 105.678 184.933 105.93 185.273 106.177C185.817 106.607 186.443 106.921 187.005 107.151C187.271 107.263 187.527 107.354 187.77 107.414C188.005 107.485 188.223 107.529 188.409 107.553C188.773 107.618 189.002 107.614 189.002 107.614C189.283 107.675 189.527 107.282 189.578 106.832C189.633 106.267 189.515 105.824 189.342 105.834Z" fill="#00E6B3"/>
</g>
</g>
<g id="Group_58">
<g id="Group_59">
<path id="Vector_39" d="M196.552 102.46C196.552 102.46 195.465 102.053 193.984 101.525C193.197 101.281 192.3 100.963 191.391 100.7C190.876 100.558 190.32 100.41 189.793 100.323C187.748 99.872 186.056 99.537 186.056 99.537C185.703 99.422 185.334 99.76 185.197 100.192C185.047 100.68 185.247 101.111 185.559 101.219C185.559 101.219 187.19 101.829 189.146 102.493C189.649 102.69 190.164 102.831 190.72 102.98C191.629 103.243 192.55 103.452 193.349 103.641C194.867 104.005 196.043 104.198 196.043 104.198C196.396 104.313 196.765 103.976 196.902 103.543C197.064 102.999 196.877 102.513 196.552 102.46Z" fill="#00E6B3"/>
</g>
</g>
<g id="Group_60">
<g id="Group_61">
<path id="Vector_40" d="M60.086 271.264C60.086 271.264 59.829 271.218 59.355 271.133C58.883 271.044 58.196 270.912 57.351 270.713C56.514 270.51 55.489 270.253 54.477 269.836C54.356 269.781 54.224 269.731 54.11 269.67L53.933 269.583L53.887 269.553C53.838 269.519 53.829 269.504 53.811 269.474C53.768 269.407 53.868 269.362 53.916 269.365L54.196 269.285C54.363 269.239 54.537 269.197 54.716 269.157C55.073 269.076 55.448 269.004 55.833 268.937C56.602 268.804 57.411 268.691 58.238 268.583C59.894 268.368 61.627 268.177 63.371 267.924C64.357 267.775 65.383 267.611 66.437 267.357C66.968 267.224 67.495 267.085 68.082 266.825C68.38 266.674 68.688 266.561 69.094 266.132C69.281 265.943 69.537 265.509 69.521 265.032C69.512 264.567 69.3 264.211 69.153 264.033C68.993 263.826 68.844 263.701 68.727 263.609C68.602 263.507 68.474 263.403 68.352 263.33C68.103 263.159 67.86 263.033 67.618 262.905C67.138 262.676 66.667 262.482 66.208 262.33C65.289 262.016 64.408 261.795 63.567 261.609C61.887 261.245 60.372 261.017 59.097 260.848C57.823 260.679 56.788 260.574 56.073 260.505C55.357 260.44 54.961 260.404 54.961 260.404C53.594 260.244 52.586 260.595 52.505 261.044C52.432 261.548 53.524 261.995 54.717 262.142C54.717 262.142 56.291 262.324 58.768 262.743C60.005 262.955 61.468 263.232 63.036 263.628C63.817 263.829 64.627 264.061 65.411 264.355C65.803 264.501 66.186 264.666 66.539 264.848C66.705 264.943 66.887 265.034 67.021 265.137C67.094 265.187 67.171 265.236 67.22 265.286C67.272 265.332 67.355 265.398 67.347 265.399C67.358 265.393 67.33 265.42 67.374 265.387C67.402 265.359 67.432 265.332 67.463 265.306C67.525 265.255 67.594 265.21 67.668 265.171C67.747 265.103 67.895 265.061 67.926 265.049C68.053 265.025 67.978 265.076 67.805 264.945C67.68 264.87 67.618 264.789 67.471 264.643C67.45 264.62 67.391 264.549 67.405 264.563C67.405 264.563 67.41 264.561 67.404 264.563L67.384 264.574C67.354 264.593 67.289 264.626 67.217 264.658C66.908 264.794 66.463 264.92 66.017 265.025C65.109 265.237 64.122 265.403 63.094 265.561C61.375 265.803 59.659 266.045 58 266.279C57.162 266.405 56.335 266.539 55.522 266.696C55.115 266.775 54.712 266.859 54.31 266.957C54.109 267.006 53.908 267.059 53.706 267.115L53.403 267.205L53.239 267.258C53.153 267.285 53.067 267.315 52.984 267.348C52.344 267.583 51.754 267.91 51.462 268.36C51.304 268.579 51.218 268.842 51.189 269.12C51.208 269.395 51.215 269.668 51.328 269.912C51.532 270.405 51.944 270.825 52.446 271.146C52.567 271.221 52.69 271.284 52.811 271.353L52.992 271.454L53.115 271.51C53.279 271.585 53.44 271.655 53.597 271.714C54.851 272.188 55.938 272.409 56.852 272.593C57.763 272.77 58.492 272.874 58.994 272.944C59.496 273.009 59.77 273.044 59.77 273.044C61.14 273.264 62.164 272.94 62.256 272.493C62.335 271.936 61.258 271.403 60.086 271.264Z" fill="#00E6B3"/>
</g>
</g>
<g id="Group_62">
<g id="Group_63">
<path id="Vector_41" d="M170.604 289.197C170.604 289.197 170.35 289.128 169.882 289C169.413 288.876 168.729 288.699 167.856 288.511C166.979 288.329 165.928 288.113 164.652 288.025C164.33 288.008 163.995 287.995 163.632 288.013C163.559 288.018 163.416 288.021 163.264 288.04L162.828 288.115C162.677 288.133 162.541 288.178 162.405 288.225C162.27 288.272 162.122 288.308 162.009 288.382C161.505 288.623 161.129 289.017 160.95 289.54C160.813 290.083 160.961 290.603 161.331 291.12C161.528 291.384 161.783 291.652 162.042 291.88L162.229 292.047L162.35 292.148L162.592 292.345C162.916 292.602 163.244 292.841 163.577 293.077C164.242 293.546 164.924 293.997 165.614 294.45C166.99 295.355 168.409 296.262 169.715 297.229C170.442 297.768 171.192 298.371 171.692 298.968C171.942 299.248 172.061 299.58 172.044 299.525C172.045 299.533 172.055 299.545 172.048 299.557C172.041 299.561 172.047 299.563 172.038 299.575C172.021 299.59 172.006 299.606 171.991 299.625C171.944 299.661 171.908 299.7 171.813 299.756C170.56 300.599 168.945 300.715 167.482 300.478C166.01 300.243 164.685 299.738 163.604 299.26C162.521 298.772 161.668 298.296 161.086 297.956C160.505 297.613 160.19 297.41 160.19 297.41C159.124 296.684 158.162 296.453 157.835 296.772C157.479 297.145 158.162 298.149 159.169 298.838C159.169 298.838 159.495 299.07 160.098 299.464C160.703 299.854 161.59 300.401 162.745 300.982C163.905 301.548 165.331 302.176 167.072 302.525C167.941 302.692 168.893 302.793 169.905 302.696C170.912 302.603 171.979 302.298 172.933 301.725C173.166 301.6 173.486 301.398 173.783 301.07C174.095 300.724 174.317 300.27 174.367 299.796C174.428 299.324 174.298 298.801 174.152 298.483C174.002 298.138 173.821 297.865 173.636 297.617C172.885 296.654 172.053 296.018 171.19 295.364C169.771 294.309 168.315 293.415 166.933 292.547C166.243 292.115 165.569 291.693 164.939 291.272C164.625 291.062 164.321 290.851 164.039 290.641C163.904 290.541 163.75 290.419 163.65 290.339L163.6 290.303C163.578 290.285 163.549 290.263 163.54 290.231C163.535 290.198 163.561 290.174 163.586 290.159C163.615 290.142 163.64 290.132 163.685 290.124C163.912 290.096 164.202 290.094 164.462 290.095C165.54 290.116 166.563 290.269 167.403 290.405C168.247 290.544 168.926 290.686 169.392 290.783C169.858 290.884 170.113 290.939 170.113 290.939C171.374 291.277 172.375 291.14 172.556 290.721C172.746 290.187 171.768 289.456 170.604 289.197Z" fill="#00E6B3"/>
</g>
</g>
<g id="Group_64">
<g id="Group_65">
<path id="Vector_42" d="M86.733 225.625C86.733 225.625 86.864 225.658 87.117 225.723C87.371 225.779 87.747 225.861 88.234 225.968C89.209 226.179 90.628 226.487 92.407 226.872C95.983 227.533 101.013 228.465 106.859 229.08C112.993 229.736 120.092 230.223 127.173 230.33C129.172 230.342 131.248 230.387 133.32 230.332C135.391 230.297 137.46 230.269 139.443 230.156C147.251 229.854 154.347 229.272 159.477 228.707C162.045 228.452 164.119 228.164 165.557 228.002C166.995 227.836 167.788 227.713 167.788 227.713C170.539 227.373 172.421 226.702 172.456 226.24C172.458 225.726 170.125 225.663 167.692 225.957C167.692 225.957 167.492 225.981 167.112 226.025C166.733 226.074 166.172 226.131 165.451 226.201C164.009 226.334 161.932 226.577 159.372 226.785C154.256 227.249 147.216 227.7 139.566 227.886C137.572 227.942 135.584 227.948 133.561 227.964C131.538 228.002 129.481 227.97 127.349 227.954C120.335 227.852 113.352 227.489 107.303 226.907C105.867 226.758 104.475 226.614 103.137 226.474C101.804 226.299 100.525 226.13 99.313 225.971C98.707 225.889 98.116 225.821 97.546 225.734C96.977 225.642 96.426 225.552 95.895 225.466C94.831 225.294 93.845 225.135 92.948 224.991C91.16 224.669 89.735 224.371 88.749 224.187C88.257 224.092 87.876 224.018 87.618 223.969C87.36 223.92 87.228 223.884 87.228 223.884C84.57 223.212 82.58 223.159 82.363 223.573C82.166 224.106 84.341 225.073 86.733 225.625Z" fill="#00E6B3"/>
</g>
</g>
<g id="Group_66">
<g id="Group_67">
<g id="Group_68">
<path id="Vector_43" d="M101.372 232.514C101.328 232.514 101.283 232.512 101.238 232.507L83.593 230.828C82.832 230.755 82.271 230.077 82.343 229.315L82.977 222.647C83.045 221.931 83.638 221.391 84.356 221.391C84.4 221.391 84.445 221.393 84.49 221.398L102.135 223.077C102.896 223.15 103.457 223.828 103.385 224.59L102.751 231.258C102.683 231.973 102.09 232.514 101.372 232.514Z" fill="#142664"/>
</g>
<g id="Group_69">
<path id="Vector_44" d="M84.357 222.224C84.375 222.224 84.394 222.225 84.412 222.226L102.058 223.905C102.257 223.924 102.378 224.038 102.433 224.104C102.488 224.17 102.577 224.311 102.558 224.51L101.924 231.178C101.897 231.46 101.656 231.681 101.374 231.681C101.356 231.681 101.337 231.68 101.319 231.679L83.672 230C83.367 229.971 83.143 229.699 83.172 229.395L83.806 222.727C83.833 222.445 84.075 222.224 84.357 222.224ZM84.356 220.559C83.225 220.559 82.258 221.42 82.148 222.569L81.514 229.237C81.398 230.458 82.293 231.541 83.514 231.657L101.16 233.335C101.232 233.342 101.303 233.345 101.373 233.345C102.504 233.345 103.471 232.484 103.58 231.335L104.214 224.667C104.33 223.446 103.435 222.363 102.214 222.247L84.568 220.568C84.498 220.563 84.427 220.559 84.356 220.559Z" fill="#00E6B3"/>
</g>
</g>
<g id="Group_70">
<path id="Vector_45" d="M99.933 227.441L85.832 226.1C83.633 225.891 82.02 223.938 82.229 221.739L82.409 219.852C82.618 217.653 84.571 216.04 86.77 216.249L100.871 217.59C103.07 217.799 104.683 219.752 104.474 221.951L104.294 223.838C104.084 226.037 102.132 227.65 99.933 227.441Z" fill="#00E6B3"/>
</g>
<g id="Group_71">
<g id="Group_72">
<path id="Vector_46" d="M110.604 232.827C110.233 232.823 109.887 232.674 109.628 232.409C109.369 232.144 109.229 231.794 109.234 231.423L109.315 224.726C109.324 223.97 109.946 223.355 110.701 223.355L128.443 223.57C129.208 223.579 129.823 224.21 129.814 224.975L129.732 231.672C129.723 232.428 129.101 233.043 128.346 233.043L110.604 232.827Z" fill="#142664"/>
</g>
<g id="Group_73">
<path id="Vector_47" d="M110.702 222.521L110.709 224.186L128.433 224.402C128.633 224.404 128.763 224.508 128.823 224.569C128.883 224.63 128.983 224.763 128.981 224.963L128.9 231.661C128.896 231.963 128.648 232.209 128.338 232.209L110.614 231.993C110.414 231.991 110.283 231.887 110.223 231.826C110.163 231.764 110.063 231.632 110.065 231.432L110.147 224.734C110.151 224.432 110.399 224.186 110.701 224.186V222.521H110.702ZM110.702 222.521C109.489 222.521 108.498 223.497 108.483 224.714L108.401 231.412C108.386 232.638 109.368 233.644 110.594 233.659L128.318 233.875C128.327 233.875 128.336 233.875 128.346 233.875C129.559 233.875 130.55 232.899 130.565 231.682L130.646 224.984C130.661 223.758 129.679 222.752 128.453 222.737L110.729 222.521C110.72 222.521 110.711 222.521 110.702 222.521Z" fill="#00E6B3"/>
</g>
</g>
<g id="Group_74">
<path id="Vector_48" d="M126.605 228.284L112.441 228.112C110.232 228.085 108.463 226.273 108.49 224.064L108.515 221.985C108.542 219.776 110.354 218.007 112.563 218.034L126.727 218.206C128.936 218.233 130.705 220.045 130.678 222.254L130.653 224.333C130.627 226.542 128.814 228.311 126.605 228.284Z" fill="#00E6B3"/>
</g>
</g>
<g id="Group_75">
<g id="Group_76">
<g id="Group_77">
<path id="Vector_49" d="M126.139 331.489C125.805 331.489 125.47 331.369 125.204 331.126C124.638 330.609 124.598 329.731 125.115 329.166C125.876 328.332 126.622 327.5 127.351 326.67C127.857 326.094 128.734 326.037 129.309 326.543C129.885 327.049 129.942 327.925 129.436 328.501C128.695 329.345 127.937 330.19 127.164 331.038C126.891 331.336 126.516 331.489 126.139 331.489ZM132.027 324.672C131.72 324.672 131.411 324.571 131.154 324.363C130.559 323.88 130.467 323.006 130.95 322.411C131.67 321.523 132.367 320.64 133.02 319.788C133.486 319.179 134.357 319.064 134.965 319.532C135.573 319.998 135.688 320.869 135.221 321.477C134.553 322.349 133.841 323.25 133.105 324.158C132.832 324.496 132.431 324.672 132.027 324.672ZM137.43 317.465C137.16 317.465 136.886 317.386 136.647 317.222C136.015 316.788 135.854 315.925 136.287 315.293C136.921 314.368 137.537 313.434 138.117 312.515C138.526 311.867 139.384 311.674 140.031 312.084C140.679 312.494 140.872 313.351 140.462 313.998C139.863 314.945 139.228 315.909 138.575 316.861C138.307 317.254 137.872 317.465 137.43 317.465ZM142.129 309.785C141.907 309.785 141.682 309.732 141.474 309.62C140.799 309.257 140.546 308.416 140.908 307.741C141.434 306.761 141.937 305.768 142.403 304.788C142.732 304.096 143.559 303.8 144.252 304.131C144.944 304.461 145.238 305.288 144.909 305.98C144.423 307 143.9 308.034 143.352 309.054C143.102 309.52 142.623 309.785 142.129 309.785ZM145.85 301.59C145.69 301.59 145.526 301.562 145.367 301.503C144.649 301.236 144.282 300.438 144.549 299.719C144.931 298.689 145.287 297.639 145.606 296.597C145.831 295.864 146.606 295.454 147.339 295.677C148.072 295.902 148.484 296.677 148.259 297.41C147.924 298.503 147.551 299.605 147.15 300.685C146.943 301.244 146.413 301.59 145.85 301.59ZM148.308 292.935C148.218 292.935 148.128 292.926 148.036 292.908C147.284 292.759 146.796 292.029 146.945 291.277C147.157 290.208 147.338 289.117 147.484 288.031C147.585 287.272 148.277 286.735 149.043 286.84C149.802 286.941 150.336 287.64 150.234 288.399C150.081 289.542 149.89 290.691 149.667 291.816C149.536 292.478 148.957 292.935 148.308 292.935ZM149.319 283.996C149.305 283.996 149.29 283.996 149.276 283.995C148.51 283.971 147.908 283.331 147.932 282.565C147.949 282.001 147.958 281.435 147.958 280.866C147.959 280.336 147.951 279.805 147.936 279.27C147.914 278.504 148.517 277.866 149.283 277.843C150.063 277.825 150.688 278.425 150.71 279.19C150.726 279.751 150.734 280.31 150.733 280.866C150.733 281.463 150.724 282.057 150.706 282.649C150.682 283.403 150.066 283.996 149.319 283.996ZM148.898 275.006C148.206 275.006 147.607 274.489 147.522 273.784C147.392 272.708 147.231 271.607 147.042 270.511C146.912 269.756 147.419 269.038 148.174 268.908C148.933 268.783 149.647 269.285 149.777 270.04C149.974 271.181 150.142 272.329 150.277 273.452C150.369 274.212 149.826 274.903 149.065 274.996C149.009 275.003 148.953 275.006 148.898 275.006ZM147.239 266.157C146.618 266.157 146.053 265.737 145.894 265.107C145.63 264.057 145.336 262.979 145.018 261.902C144.801 261.167 145.221 260.396 145.956 260.179C146.689 259.961 147.463 260.382 147.679 261.117C148.007 262.229 148.312 263.344 148.585 264.43C148.771 265.173 148.321 265.927 147.577 266.114C147.465 266.143 147.352 266.157 147.239 266.157ZM144.59 257.55C144.022 257.55 143.489 257.199 143.285 256.634C142.914 255.608 142.515 254.559 142.1 253.517C141.817 252.805 142.163 251.998 142.876 251.715C143.587 251.43 144.395 251.779 144.678 252.491C145.104 253.56 145.513 254.637 145.894 255.69C146.155 256.411 145.782 257.206 145.061 257.467C144.906 257.523 144.747 257.55 144.59 257.55Z" fill="#00E6B3"/>
</g>
</g>
</g>
</g>
</svg>
